<svg width="29" height="28" viewBox="0 0 29 28" fill="none" xmlns="http://www.w3.org/2000/svg">
<path d="M14.2571 24.9469C14.788 25.2525 15.4357 25.2351 15.965 24.9267C18.912 23.2092 23.8531 19.4082 25.8145 14.4965C28.745 7.98714 21.8643 2.79091 17.1087 6.52822C16.6457 6.89211 16.0714 7.30508 15.6479 7.7022C15.4046 7.93037 14.9809 7.95369 14.7312 7.73257C14.1665 7.23267 13.3463 6.6221 12.8095 6.25892C8.75527 3.51599 1.37856 7.13163 4.52521 14.8482C5.65972 18.2573 10.9987 23.0714 14.2571 24.9469Z" fill="url(#paint0_radial_6103_1434)"/>
<path d="M14.2571 24.9469C14.788 25.2525 15.4357 25.2351 15.965 24.9267C18.912 23.2092 23.8531 19.4082 25.8145 14.4965C28.745 7.98714 21.8643 2.79091 17.1087 6.52822C16.6457 6.89211 16.0714 7.30508 15.6479 7.7022C15.4046 7.93037 14.9809 7.95369 14.7312 7.73257C14.1665 7.23267 13.3463 6.6221 12.8095 6.25892C8.75527 3.51599 1.37856 7.13163 4.52521 14.8482C5.65972 18.2573 10.9987 23.0714 14.2571 24.9469Z" fill="url(#paint1_radial_6103_1434)"/>
<path d="M14.2571 24.9469C14.788 25.2525 15.4357 25.2351 15.965 24.9267C18.912 23.2092 23.8531 19.4082 25.8145 14.4965C28.745 7.98714 21.8643 2.79091 17.1087 6.52822C16.6457 6.89211 16.0714 7.30508 15.6479 7.7022C15.4046 7.93037 14.9809 7.95369 14.7312 7.73257C14.1665 7.23267 13.3463 6.6221 12.8095 6.25892C8.75527 3.51599 1.37856 7.13163 4.52521 14.8482C5.65972 18.2573 10.9987 23.0714 14.2571 24.9469Z" fill="url(#paint2_radial_6103_1434)"/>
<path d="M14.2571 24.9469C14.788 25.2525 15.4357 25.2351 15.965 24.9267C18.912 23.2092 23.8531 19.4082 25.8145 14.4965C28.745 7.98714 21.8643 2.79091 17.1087 6.52822C16.6457 6.89211 16.0714 7.30508 15.6479 7.7022C15.4046 7.93037 14.9809 7.95369 14.7312 7.73257C14.1665 7.23267 13.3463 6.6221 12.8095 6.25892C8.75527 3.51599 1.37856 7.13163 4.52521 14.8482C5.65972 18.2573 10.9987 23.0714 14.2571 24.9469Z" fill="url(#paint3_radial_6103_1434)"/>
<path d="M14.2571 24.9469C14.788 25.2525 15.4357 25.2351 15.965 24.9267C18.912 23.2092 23.8531 19.4082 25.8145 14.4965C28.745 7.98714 21.8643 2.79091 17.1087 6.52822C16.6457 6.89211 16.0714 7.30508 15.6479 7.7022C15.4046 7.93037 14.9809 7.95369 14.7312 7.73257C14.1665 7.23267 13.3463 6.6221 12.8095 6.25892C8.75527 3.51599 1.37856 7.13163 4.52521 14.8482C5.65972 18.2573 10.9987 23.0714 14.2571 24.9469Z" fill="url(#paint4_linear_6103_1434)"/>
<path d="M14.2571 24.9469C14.788 25.2525 15.4357 25.2351 15.965 24.9267C18.912 23.2092 23.8531 19.4082 25.8145 14.4965C28.745 7.98714 21.8643 2.79091 17.1087 6.52822C16.6457 6.89211 16.0714 7.30508 15.6479 7.7022C15.4046 7.93037 14.9809 7.95369 14.7312 7.73257C14.1665 7.23267 13.3463 6.6221 12.8095 6.25892C8.75527 3.51599 1.37856 7.13163 4.52521 14.8482C5.65972 18.2573 10.9987 23.0714 14.2571 24.9469Z" fill="url(#paint5_linear_6103_1434)"/>
<g filter="url(#filter0_f_6103_1434)">
<path d="M15.623 9.9428V19.4987C15.623 20.4036 16.6492 20.7715 17.1228 20.0005C18.5984 17.5978 19.9045 14.0945 19.0292 11.2774C18.5439 9.71572 17.1229 9.11876 16.1756 9.2044C15.8187 9.23667 15.623 9.58442 15.623 9.9428Z" fill="#FA1C56"/>
</g>
<g filter="url(#filter1_f_6103_1434)">
<ellipse cx="22.2778" cy="10.3449" rx="3.39858" ry="2.33847" transform="rotate(-44.1901 22.2778 10.3449)" fill="url(#paint6_radial_6103_1434)"/>
</g>
<g filter="url(#filter2_f_6103_1434)">
<ellipse cx="13.0625" cy="10.345" rx="3.90466" ry="2.10656" transform="rotate(-128.955 13.0625 10.345)" fill="url(#paint7_radial_6103_1434)" fill-opacity="0.6"/>
</g>
<defs>
<filter id="filter0_f_6103_1434" x="13.623" y="7.19641" width="7.68867" height="15.2228" filterUnits="userSpaceOnUse" color-interpolation-filters="sRGB">
<feFlood flood-opacity="0" result="BackgroundImageFix"/>
<feBlend mode="normal" in="SourceGraphic" in2="BackgroundImageFix" result="shape"/>
<feGaussianBlur stdDeviation="1" result="effect1_foregroundBlur_6103_1434"/>
</filter>
<filter id="filter1_f_6103_1434" x="17.8457" y="5.94238" width="8.86419" height="8.80505" filterUnits="userSpaceOnUse" color-interpolation-filters="sRGB">
<feFlood flood-opacity="0" result="BackgroundImageFix"/>
<feBlend mode="normal" in="SourceGraphic" in2="BackgroundImageFix" result="shape"/>
<feGaussianBlur stdDeviation="0.75" result="effect1_foregroundBlur_6103_1434"/>
</filter>
<filter id="filter2_f_6103_1434" x="8.61088" y="5.53149" width="8.90321" height="9.62695" filterUnits="userSpaceOnUse" color-interpolation-filters="sRGB">
<feFlood flood-opacity="0" result="BackgroundImageFix"/>
<feBlend mode="normal" in="SourceGraphic" in2="BackgroundImageFix" result="shape"/>
<feGaussianBlur stdDeviation="0.75" result="effect1_foregroundBlur_6103_1434"/>
</filter>
<radialGradient id="paint0_radial_6103_1434" cx="0" cy="0" r="1" gradientUnits="userSpaceOnUse" gradientTransform="translate(17.4496 24.8535) rotate(-90) scale(26.6008 45.2214)">
<stop stop-color="#F12E52"/>
<stop offset="0.596003" stop-color="#FF3B79"/>
<stop offset="1" stop-color="#FF4EC6"/>
</radialGradient>
<radialGradient id="paint1_radial_6103_1434" cx="0" cy="0" r="1" gradientUnits="userSpaceOnUse" gradientTransform="translate(20.7871 10.4698) rotate(142.986) scale(21.4136 40.1098)">
<stop offset="0.483055" stop-color="#B91D43" stop-opacity="0"/>
<stop offset="0.833898" stop-color="#B91D43"/>
</radialGradient>
<radialGradient id="paint2_radial_6103_1434" cx="0" cy="0" r="1" gradientUnits="userSpaceOnUse" gradientTransform="translate(18.3147 15.7162) rotate(-158.663) scale(18.5745 26.2576)">
<stop offset="0.40984" stop-color="#B91D43" stop-opacity="0"/>
<stop offset="0.833898" stop-color="#B91D43"/>
</radialGradient>
<radialGradient id="paint3_radial_6103_1434" cx="0" cy="0" r="1" gradientUnits="userSpaceOnUse" gradientTransform="translate(14.6922 12.4722) rotate(90) scale(16.1659 16.1659)">
<stop offset="0.671096" stop-color="#FF7AF2" stop-opacity="0"/>
<stop offset="0.933555" stop-color="#FFBCE6"/>
</radialGradient>
<linearGradient id="paint4_linear_6103_1434" x1="16.4765" y1="14.3645" x2="23.0185" y2="22.1501" gradientUnits="userSpaceOnUse">
<stop offset="0.694491" stop-color="#FF7AF2" stop-opacity="0"/>
<stop offset="0.933555" stop-color="#FFBCE6"/>
</linearGradient>
<linearGradient id="paint5_linear_6103_1434" x1="15.6655" y1="14.6889" x2="7.98798" y2="23.3396" gradientUnits="userSpaceOnUse">
<stop offset="0.694491" stop-color="#FF7AF2" stop-opacity="0"/>
<stop offset="0.933555" stop-color="#FFBCE6"/>
</linearGradient>
<radialGradient id="paint6_radial_6103_1434" cx="0" cy="0" r="1" gradientUnits="userSpaceOnUse" gradientTransform="translate(25.6982 11.064) rotate(-176.775) scale(5.02594 3.39374)">
<stop stop-color="#FF93BA"/>
<stop offset="1" stop-color="#FF73A6" stop-opacity="0"/>
</radialGradient>
<radialGradient id="paint7_radial_6103_1434" cx="0" cy="0" r="1" gradientUnits="userSpaceOnUse" gradientTransform="translate(15.3675 10.9139) rotate(-178.667) scale(8.31012 4.40121)">
<stop stop-color="#FF93BA"/>
<stop offset="1" stop-color="#FF73A6" stop-opacity="0"/>
</radialGradient>
</defs>
</svg>
