<?xml version="1.0" encoding="UTF-8"?>
<svg width="51px" height="36px" viewBox="0 0 51 36" version="1.1" xmlns="http://www.w3.org/2000/svg" xmlns:xlink="http://www.w3.org/1999/xlink">
    <title>mouth2</title>
    <g id="StartCallIllustration" stroke="none" stroke-width="1" fill="none" fill-rule="evenodd">
        <g id="mouth2" transform="translate(0.370088, 0.201720)" stroke="#BE3E00" stroke-width="4">
            <path d="M25.0144134,7.29420635 C25.3869436,7.08256208 25.8402134,7.01303329 26.2859235,7.1357851 C26.9000334,7.30491547 27.372325,7.81079338 27.4891054,8.45263166 L27.4891054,8.45263166 L32.128197,14.6479239 L38.1238272,13.9581963 C39.8984207,13.7538492 41.5878416,14.2881437 42.8847009,15.3171734 C44.1815602,16.346203 45.085858,17.8699679 45.2902051,19.6445613 C45.3184926,19.8902157 45.3326712,20.13729 45.3326712,20.3845677 C45.3326712,22.4556356 44.4932051,24.3306356 43.1359721,25.6878686 C41.778739,27.0451017 39.903739,27.8845677 37.8326712,27.8845677 L37.8326712,27.8845677 L11.8326712,27.8845677 C9.7616034,27.8845677 7.8866034,27.0451017 6.52937035,25.6878686 C5.1721373,24.3306356 4.33267121,22.4556356 4.33267121,20.3845677 C4.33267121,18.5982476 5.05672052,16.9810382 6.22734987,15.8104088 C7.39797922,14.6397795 9.01518862,13.9157302 10.8015088,13.9157302 C11.0487865,13.9157302 11.2958608,13.9299088 11.5415938,13.9582053 L11.5415938,13.9582053 L18.8880902,14.8038711 L24.167511,8.66933061 C24.2043389,8.05242338 24.5453826,7.56067521 25.0144134,7.29420635 Z" id="Combined-Shape" fill="#FE6022" transform="translate(24.832671, 17.479666) rotate(14.000000) translate(-24.832671, -17.479666) "></path>
            <line x1="11.6299118" y1="17.7982797" x2="35.6299118" y2="23.7982797" id="Path-12" stroke-linecap="round" stroke-linejoin="round"></line>
        </g>
    </g>
</svg>